<svg xmlns="http://www.w3.org/2000/svg" xmlns:xlink="http://www.w3.org/1999/xlink" width="500" zoomAndPan="magnify" viewBox="0 0 375 374.999991" height="500" preserveAspectRatio="xMidYMid meet" version="1.0"><defs><clipPath id="974875ed89"><path d="M 37.5 37.5 L 337.5 37.5 L 337.5 337.5 L 37.5 337.5 Z M 37.5 37.5 " clip-rule="nonzero"/></clipPath></defs><g clip-path="url(#974875ed89)"><path fill="#ffffff" d="M 187.5 37.5 C 104.851562 37.5 37.5 104.851562 37.5 187.5 C 37.5 270.148438 104.851562 337.5 187.5 337.5 C 270.148438 337.5 337.5 270.148438 337.5 187.5 C 337.5 104.851562 270.148438 37.5 187.5 37.5 Z M 187.5 316.050781 C 116.550781 316.050781 58.949219 258.449219 58.949219 187.5 C 58.949219 116.550781 116.550781 58.949219 187.5 58.949219 C 258.449219 58.949219 316.050781 116.550781 316.050781 187.5 C 316.050781 258.449219 258.449219 316.050781 187.5 316.050781 Z M 187.5 316.050781 " fill-opacity="1" fill-rule="nonzero"/></g><path fill="#ffffff" d="M 149.398438 207.148438 C 144.449219 203.851562 143.101562 197.25 146.398438 192.300781 C 149.699219 187.351562 156.300781 186 161.25 189.300781 L 176.699219 199.648438 L 176.699219 123.148438 C 176.699219 117.300781 181.5 112.5 187.351562 112.5 C 193.199219 112.5 198 117.300781 198 123.148438 L 198 199.5 L 213.449219 189.148438 C 218.398438 185.851562 225 187.199219 228.300781 192.148438 C 231.601562 197.101562 230.25 203.699219 225.300781 207 L 193.5 228.601562 C 193.351562 228.75 193.199219 228.75 193.050781 228.75 C 192.898438 228.898438 192.75 229.050781 192.601562 229.050781 C 192.148438 229.351562 191.699219 229.351562 191.25 229.648438 C 190.949219 229.800781 190.648438 229.949219 190.351562 229.949219 C 189.449219 230.25 188.550781 230.398438 187.648438 230.398438 C 186.75 230.398438 185.699219 230.25 184.800781 229.949219 C 184.5 229.800781 184.199219 229.800781 183.898438 229.648438 C 183.300781 229.351562 182.699219 229.199219 182.101562 228.75 C 181.949219 228.601562 181.800781 228.601562 181.648438 228.601562 Z M 149.398438 207.148438 " fill-opacity="1" fill-rule="nonzero"/><path fill="#ffffff" d="M 251.851562 251.851562 C 251.851562 257.699219 247.050781 262.5 241.199219 262.5 L 133.949219 262.5 C 128.101562 262.5 123.300781 257.699219 123.300781 251.851562 C 123.300781 246 128.101562 241.199219 133.949219 241.199219 L 241.050781 241.199219 C 247.050781 241.050781 251.851562 245.851562 251.851562 251.851562 Z M 251.851562 251.851562 " fill-opacity="1" fill-rule="nonzero"/></svg>