<svg xmlns="http://www.w3.org/2000/svg" xmlns:xlink="http://www.w3.org/1999/xlink" width="500" zoomAndPan="magnify" viewBox="0 0 375 374.999991" height="500" preserveAspectRatio="xMidYMid meet" version="1.0"><defs><clipPath id="9f59a7e695"><path d="M 124.5 124.5 L 274.5 124.5 L 274.5 274.5 L 124.5 274.5 Z M 124.5 124.5 " clip-rule="nonzero"/></clipPath></defs><g clip-path="url(#9f59a7e695)"><path fill="#737373" d="M 274.5 199.5 C 274.5 200.726562 274.46875 201.953125 274.410156 203.179688 C 274.347656 204.40625 274.257812 205.628906 274.140625 206.851562 C 274.019531 208.074219 273.867188 209.289062 273.6875 210.503906 C 273.507812 211.71875 273.296875 212.929688 273.058594 214.132812 C 272.820312 215.335938 272.550781 216.53125 272.253906 217.722656 C 271.953125 218.914062 271.625 220.097656 271.269531 221.269531 C 270.914062 222.445312 270.527344 223.609375 270.117188 224.765625 C 269.703125 225.921875 269.261719 227.066406 268.789062 228.203125 C 268.320312 229.335938 267.824219 230.457031 267.300781 231.566406 C 266.773438 232.675781 266.222656 233.773438 265.644531 234.855469 C 265.066406 235.9375 264.460938 237.003906 263.828125 238.058594 C 263.199219 239.109375 262.542969 240.148438 261.859375 241.167969 C 261.179688 242.1875 260.472656 243.191406 259.742188 244.175781 C 259.007812 245.164062 258.253906 246.128906 257.476562 247.078125 C 256.695312 248.027344 255.894531 248.957031 255.070312 249.867188 C 254.246094 250.777344 253.402344 251.664062 252.53125 252.53125 C 251.664062 253.402344 250.777344 254.246094 249.867188 255.070312 C 248.957031 255.894531 248.027344 256.695312 247.078125 257.476562 C 246.128906 258.253906 245.164062 259.007812 244.175781 259.742188 C 243.191406 260.472656 242.1875 261.179688 241.167969 261.859375 C 240.148438 262.542969 239.109375 263.199219 238.058594 263.828125 C 237.003906 264.460938 235.9375 265.066406 234.855469 265.644531 C 233.773438 266.222656 232.675781 266.773438 231.566406 267.300781 C 230.457031 267.824219 229.335938 268.320312 228.203125 268.789062 C 227.066406 269.261719 225.921875 269.703125 224.765625 270.117188 C 223.609375 270.527344 222.445312 270.914062 221.269531 271.269531 C 220.097656 271.625 218.914062 271.953125 217.722656 272.253906 C 216.53125 272.550781 215.335938 272.820312 214.132812 273.058594 C 212.929688 273.296875 211.71875 273.507812 210.503906 273.6875 C 209.289062 273.867188 208.074219 274.019531 206.851562 274.140625 C 205.628906 274.257812 204.40625 274.347656 203.179688 274.410156 C 201.953125 274.46875 200.726562 274.5 199.5 274.5 C 198.273438 274.5 197.046875 274.46875 195.820312 274.410156 C 194.59375 274.347656 193.371094 274.257812 192.148438 274.140625 C 190.925781 274.019531 189.710938 273.867188 188.496094 273.6875 C 187.28125 273.507812 186.070312 273.296875 184.867188 273.058594 C 183.664062 272.820312 182.46875 272.550781 181.277344 272.253906 C 180.085938 271.953125 178.902344 271.625 177.730469 271.269531 C 176.554688 270.914062 175.390625 270.527344 174.234375 270.117188 C 173.078125 269.703125 171.933594 269.261719 170.796875 268.789062 C 169.664062 268.320312 168.542969 267.824219 167.433594 267.300781 C 166.324219 266.773438 165.226562 266.222656 164.144531 265.644531 C 163.0625 265.066406 161.996094 264.460938 160.941406 263.828125 C 159.890625 263.199219 158.851562 262.542969 157.832031 261.859375 C 156.8125 261.179688 155.808594 260.472656 154.824219 259.742188 C 153.835938 259.007812 152.871094 258.253906 151.921875 257.476562 C 150.972656 256.695312 150.042969 255.894531 149.132812 255.070312 C 148.222656 254.246094 147.335938 253.402344 146.46875 252.53125 C 145.597656 251.664062 144.753906 250.777344 143.929688 249.867188 C 143.105469 248.957031 142.304688 248.027344 141.523438 247.078125 C 140.746094 246.128906 139.992188 245.164062 139.257812 244.175781 C 138.527344 243.191406 137.820312 242.1875 137.140625 241.167969 C 136.457031 240.148438 135.800781 239.109375 135.171875 238.058594 C 134.539062 237.003906 133.933594 235.9375 133.355469 234.855469 C 132.777344 233.773438 132.226562 232.675781 131.699219 231.566406 C 131.175781 230.457031 130.679688 229.335938 130.210938 228.203125 C 129.738281 227.066406 129.296875 225.921875 128.882812 224.765625 C 128.46875 223.609375 128.085938 222.445312 127.730469 221.269531 C 127.375 220.097656 127.046875 218.914062 126.746094 217.722656 C 126.449219 216.53125 126.179688 215.335938 125.941406 214.132812 C 125.703125 212.929688 125.492188 211.71875 125.3125 210.503906 C 125.132812 209.289062 124.980469 208.074219 124.859375 206.851562 C 124.742188 205.628906 124.652344 204.40625 124.589844 203.179688 C 124.53125 201.953125 124.5 200.726562 124.5 199.5 C 124.5 198.273438 124.53125 197.046875 124.589844 195.820312 C 124.652344 194.59375 124.742188 193.371094 124.859375 192.148438 C 124.980469 190.925781 125.132812 189.710938 125.3125 188.496094 C 125.492188 187.28125 125.703125 186.070312 125.941406 184.867188 C 126.179688 183.664062 126.449219 182.46875 126.746094 181.277344 C 127.046875 180.085938 127.375 178.902344 127.730469 177.730469 C 128.085938 176.554688 128.46875 175.390625 128.882812 174.234375 C 129.296875 173.078125 129.738281 171.933594 130.210938 170.796875 C 130.679688 169.664062 131.175781 168.542969 131.699219 167.433594 C 132.226562 166.324219 132.777344 165.226562 133.355469 164.144531 C 133.933594 163.0625 134.539062 161.996094 135.171875 160.941406 C 135.800781 159.890625 136.457031 158.851562 137.140625 157.832031 C 137.820312 156.8125 138.527344 155.808594 139.257812 154.824219 C 139.992188 153.835938 140.746094 152.871094 141.523438 151.921875 C 142.304688 150.972656 143.105469 150.042969 143.929688 149.132812 C 144.753906 148.222656 145.597656 147.335938 146.46875 146.46875 C 147.335938 145.597656 148.222656 144.753906 149.132812 143.929688 C 150.042969 143.105469 150.972656 142.304688 151.921875 141.523438 C 152.871094 140.746094 153.835938 139.992188 154.824219 139.257812 C 155.808594 138.527344 156.8125 137.820312 157.832031 137.140625 C 158.851562 136.457031 159.890625 135.800781 160.941406 135.171875 C 161.996094 134.539062 163.0625 133.933594 164.144531 133.355469 C 165.226562 132.777344 166.324219 132.226562 167.433594 131.699219 C 168.542969 131.175781 169.664062 130.679688 170.796875 130.210938 C 171.933594 129.738281 173.078125 129.296875 174.234375 128.882812 C 175.390625 128.46875 176.554688 128.085938 177.730469 127.730469 C 178.902344 127.375 180.085938 127.046875 181.277344 126.746094 C 182.46875 126.449219 183.664062 126.179688 184.867188 125.941406 C 186.070312 125.703125 187.28125 125.492188 188.496094 125.3125 C 189.710938 125.132812 190.925781 124.980469 192.148438 124.859375 C 193.371094 124.742188 194.59375 124.652344 195.820312 124.589844 C 197.046875 124.53125 198.273438 124.5 199.5 124.5 C 200.726562 124.5 201.953125 124.53125 203.179688 124.589844 C 204.40625 124.652344 205.628906 124.742188 206.851562 124.859375 C 208.074219 124.980469 209.289062 125.132812 210.503906 125.3125 C 211.71875 125.492188 212.929688 125.703125 214.132812 125.941406 C 215.335938 126.179688 216.53125 126.449219 217.722656 126.746094 C 218.914062 127.046875 220.097656 127.375 221.269531 127.730469 C 222.445312 128.085938 223.609375 128.46875 224.765625 128.882812 C 225.921875 129.296875 227.066406 129.738281 228.203125 130.210938 C 229.335938 130.679688 230.457031 131.175781 231.566406 131.699219 C 232.675781 132.226562 233.773438 132.777344 234.855469 133.355469 C 235.9375 133.933594 237.003906 134.539062 238.058594 135.171875 C 239.109375 135.800781 240.148438 136.457031 241.167969 137.140625 C 242.1875 137.820312 243.191406 138.527344 244.175781 139.257812 C 245.164062 139.992188 246.128906 140.746094 247.078125 141.523438 C 248.027344 142.304688 248.957031 143.105469 249.867188 143.929688 C 250.777344 144.753906 251.664062 145.597656 252.53125 146.46875 C 253.402344 147.335938 254.246094 148.222656 255.070312 149.132812 C 255.894531 150.042969 256.695312 150.972656 257.476562 151.921875 C 258.253906 152.871094 259.007812 153.835938 259.742188 154.824219 C 260.472656 155.808594 261.179688 156.8125 261.859375 157.832031 C 262.542969 158.851562 263.199219 159.890625 263.828125 160.941406 C 264.460938 161.996094 265.066406 163.0625 265.644531 164.144531 C 266.222656 165.226562 266.773438 166.324219 267.300781 167.433594 C 267.824219 168.542969 268.320312 169.664062 268.789062 170.796875 C 269.261719 171.933594 269.703125 173.078125 270.117188 174.234375 C 270.527344 175.390625 270.914062 176.554688 271.269531 177.730469 C 271.625 178.902344 271.953125 180.085938 272.253906 181.277344 C 272.550781 182.46875 272.820312 183.664062 273.058594 184.867188 C 273.296875 186.070312 273.507812 187.28125 273.6875 188.496094 C 273.867188 189.710938 274.019531 190.925781 274.140625 192.148438 C 274.257812 193.371094 274.347656 194.59375 274.410156 195.820312 C 274.46875 197.046875 274.5 198.273438 274.5 199.5 Z M 274.5 199.5 " fill-opacity="1" fill-rule="nonzero"/></g><path fill="#ffffff" d="M 199.5 164.445312 C 199.820312 164.445312 200.140625 164.476562 200.453125 164.539062 C 200.769531 164.601562 201.074219 164.695312 201.371094 164.816406 C 201.667969 164.941406 201.949219 165.089844 202.21875 165.269531 C 202.484375 165.449219 202.730469 165.652344 202.957031 165.878906 C 203.1875 166.105469 203.386719 166.351562 203.566406 166.621094 C 203.746094 166.886719 203.894531 167.167969 204.019531 167.464844 C 204.140625 167.761719 204.234375 168.066406 204.296875 168.382812 C 204.359375 168.699219 204.390625 169.015625 204.390625 169.335938 L 204.390625 224.773438 C 204.390625 225.09375 204.359375 225.410156 204.296875 225.726562 C 204.234375 226.039062 204.140625 226.347656 204.019531 226.644531 C 203.894531 226.941406 203.746094 227.222656 203.566406 227.488281 C 203.386719 227.757812 203.1875 228.003906 202.957031 228.230469 C 202.730469 228.457031 202.484375 228.660156 202.21875 228.839844 C 201.949219 229.015625 201.667969 229.167969 201.371094 229.289062 C 201.074219 229.414062 200.769531 229.507812 200.453125 229.570312 C 200.140625 229.632812 199.820312 229.664062 199.5 229.664062 C 199.179688 229.664062 198.859375 229.632812 198.546875 229.570312 C 198.230469 229.507812 197.925781 229.414062 197.628906 229.289062 C 197.332031 229.167969 197.050781 229.015625 196.78125 228.839844 C 196.515625 228.660156 196.269531 228.457031 196.042969 228.230469 C 195.8125 228.003906 195.613281 227.757812 195.433594 227.488281 C 195.253906 227.222656 195.105469 226.941406 194.980469 226.644531 C 194.859375 226.347656 194.765625 226.039062 194.703125 225.726562 C 194.640625 225.410156 194.609375 225.09375 194.609375 224.773438 L 194.609375 169.335938 C 194.609375 169.015625 194.640625 168.699219 194.703125 168.382812 C 194.765625 168.066406 194.859375 167.761719 194.980469 167.464844 C 195.105469 167.167969 195.253906 166.886719 195.433594 166.621094 C 195.613281 166.351562 195.8125 166.105469 196.042969 165.878906 C 196.269531 165.652344 196.515625 165.449219 196.78125 165.269531 C 197.050781 165.089844 197.332031 164.941406 197.628906 164.816406 C 197.925781 164.695312 198.230469 164.601562 198.546875 164.539062 C 198.859375 164.476562 199.179688 164.445312 199.5 164.445312 Z M 199.5 164.445312 " fill-opacity="1" fill-rule="nonzero"/><path fill="#ffffff" d="M 199.5 234.554688 C 198.261719 234.554688 196.988281 234.066406 196.042969 233.121094 L 179.933594 217.011719 C 178.011719 215.085938 178.011719 211.988281 179.933594 210.097656 C 181.859375 208.175781 184.957031 208.175781 186.847656 210.097656 L 196.042969 219.292969 C 197.96875 221.21875 201.066406 221.21875 202.957031 219.292969 L 212.152344 210.097656 C 214.074219 208.175781 217.175781 208.175781 219.066406 210.097656 C 220.988281 212.023438 220.988281 215.121094 219.066406 217.011719 L 202.957031 233.121094 C 202.011719 234.066406 200.738281 234.554688 199.5 234.554688 Z M 199.5 234.554688 " fill-opacity="1" fill-rule="nonzero"/></svg>