<svg xmlns="http://www.w3.org/2000/svg" xmlns:xlink="http://www.w3.org/1999/xlink" width="500" zoomAndPan="magnify" viewBox="0 0 375 374.999991" height="500" preserveAspectRatio="xMidYMid meet" version="1.0"><defs><clipPath id="af3ed04fdd"><path d="M 112.5 112.5 L 262.5 112.5 L 262.5 262.5 L 112.5 262.5 Z M 112.5 112.5 " clip-rule="nonzero"/></clipPath></defs><g clip-path="url(#af3ed04fdd)"><path fill="#d9d9d9" d="M 187.535156 112.5 C 186.308594 112.5 185.082031 112.53125 183.855469 112.589844 C 182.628906 112.652344 181.402344 112.742188 180.183594 112.863281 C 178.960938 112.984375 177.742188 113.136719 176.527344 113.316406 C 175.316406 113.496094 174.105469 113.707031 172.902344 113.945312 C 171.699219 114.1875 170.5 114.457031 169.308594 114.753906 C 168.121094 115.054688 166.9375 115.378906 165.761719 115.738281 C 164.585938 116.09375 163.421875 116.480469 162.265625 116.894531 C 161.109375 117.308594 159.964844 117.75 158.832031 118.21875 C 157.699219 118.691406 156.578125 119.1875 155.46875 119.710938 C 154.359375 120.238281 153.261719 120.789062 152.179688 121.367188 C 151.097656 121.949219 150.03125 122.554688 148.976562 123.183594 C 147.925781 123.816406 146.886719 124.472656 145.867188 125.15625 C 144.847656 125.835938 143.84375 126.542969 142.859375 127.277344 C 141.871094 128.007812 140.90625 128.761719 139.957031 129.542969 C 139.007812 130.320312 138.078125 131.121094 137.167969 131.949219 C 136.261719 132.773438 135.371094 133.617188 134.503906 134.488281 C 133.636719 135.355469 132.789062 136.246094 131.964844 137.152344 C 131.140625 138.0625 130.339844 138.992188 129.5625 139.941406 C 128.785156 140.890625 128.03125 141.859375 127.296875 142.84375 C 126.566406 143.832031 125.859375 144.835938 125.179688 145.855469 C 124.496094 146.878906 123.839844 147.914062 123.210938 148.96875 C 122.582031 150.019531 121.976562 151.089844 121.398438 152.171875 C 120.820312 153.253906 120.269531 154.351562 119.742188 155.460938 C 119.21875 156.570312 118.722656 157.691406 118.253906 158.824219 C 117.78125 159.960938 117.339844 161.105469 116.929688 162.261719 C 116.515625 163.417969 116.128906 164.582031 115.773438 165.757812 C 115.417969 166.933594 115.09375 168.113281 114.792969 169.304688 C 114.496094 170.496094 114.226562 171.695312 113.988281 172.898438 C 113.75 174.101562 113.539062 175.3125 113.359375 176.527344 C 113.179688 177.738281 113.03125 178.957031 112.910156 180.179688 C 112.789062 181.402344 112.699219 182.625 112.640625 183.851562 C 112.582031 185.078125 112.550781 186.304688 112.550781 187.53125 C 112.550781 188.757812 112.582031 189.984375 112.644531 191.210938 C 112.703125 192.4375 112.792969 193.660156 112.914062 194.882812 C 113.035156 196.105469 113.1875 197.324219 113.367188 198.539062 C 113.546875 199.75 113.757812 200.960938 113.996094 202.164062 C 114.238281 203.367188 114.507812 204.566406 114.804688 205.757812 C 115.105469 206.945312 115.429688 208.128906 115.789062 209.304688 C 116.144531 210.480469 116.53125 211.644531 116.945312 212.800781 C 117.359375 213.953125 117.800781 215.101562 118.269531 216.234375 C 118.738281 217.367188 119.238281 218.488281 119.761719 219.597656 C 120.289062 220.707031 120.839844 221.804688 121.417969 222.886719 C 122 223.96875 122.601562 225.035156 123.234375 226.089844 C 123.867188 227.140625 124.523438 228.179688 125.207031 229.199219 C 125.886719 230.21875 126.59375 231.222656 127.324219 232.207031 C 128.058594 233.195312 128.8125 234.160156 129.589844 235.109375 C 130.371094 236.058594 131.171875 236.988281 131.996094 237.898438 C 132.820312 238.808594 133.667969 239.695312 134.535156 240.5625 C 135.40625 241.429688 136.292969 242.277344 137.203125 243.101562 C 138.113281 243.925781 139.042969 244.726562 139.992188 245.503906 C 140.941406 246.28125 141.910156 247.039062 142.894531 247.769531 C 143.882812 248.5 144.882812 249.207031 145.90625 249.886719 C 146.925781 250.570312 147.964844 251.226562 149.015625 251.855469 C 150.070312 252.488281 151.136719 253.09375 152.21875 253.671875 C 153.304688 254.25 154.398438 254.800781 155.507812 255.324219 C 156.617188 255.847656 157.742188 256.347656 158.875 256.816406 C 160.007812 257.285156 161.15625 257.726562 162.308594 258.140625 C 163.464844 258.554688 164.632812 258.9375 165.804688 259.292969 C 166.980469 259.648438 168.164062 259.976562 169.355469 260.273438 C 170.546875 260.574219 171.742188 260.839844 172.945312 261.078125 C 174.152344 261.320312 175.359375 261.527344 176.574219 261.707031 C 177.789062 261.886719 179.007812 262.039062 180.230469 262.15625 C 181.449219 262.277344 182.675781 262.367188 183.898438 262.429688 C 185.125 262.488281 186.351562 262.519531 187.582031 262.515625 C 188.808594 262.515625 190.035156 262.488281 191.261719 262.425781 C 192.488281 262.367188 193.710938 262.273438 194.933594 262.152344 C 196.152344 262.035156 197.371094 261.882812 198.585938 261.703125 C 199.800781 261.523438 201.007812 261.3125 202.214844 261.070312 C 203.417969 260.832031 204.613281 260.5625 205.804688 260.265625 C 206.996094 259.964844 208.179688 259.636719 209.351562 259.28125 C 210.527344 258.925781 211.691406 258.539062 212.847656 258.125 C 214.003906 257.710938 215.148438 257.269531 216.28125 256.800781 C 217.417969 256.328125 218.539062 255.832031 219.648438 255.308594 C 220.757812 254.78125 221.855469 254.230469 222.9375 253.652344 C 224.019531 253.074219 225.085938 252.46875 226.140625 251.835938 C 227.191406 251.203125 228.226562 250.546875 229.25 249.867188 C 230.269531 249.183594 231.273438 248.476562 232.257812 247.746094 C 233.242188 247.011719 234.210938 246.257812 235.160156 245.480469 C 236.109375 244.699219 237.039062 243.898438 237.945312 243.074219 C 238.855469 242.25 239.746094 241.402344 240.613281 240.535156 C 241.480469 239.667969 242.328125 238.777344 243.152344 237.867188 C 243.976562 236.957031 244.777344 236.027344 245.554688 235.078125 C 246.332031 234.128906 247.089844 233.164062 247.820312 232.175781 C 248.550781 231.191406 249.257812 230.1875 249.9375 229.164062 C 250.621094 228.144531 251.277344 227.109375 251.90625 226.054688 C 252.539062 225.003906 253.140625 223.933594 253.71875 222.851562 C 254.300781 221.769531 254.851562 220.671875 255.375 219.5625 C 255.898438 218.453125 256.398438 217.332031 256.867188 216.195312 C 257.335938 215.0625 257.777344 213.917969 258.191406 212.761719 C 258.605469 211.605469 258.988281 210.441406 259.34375 209.265625 C 259.699219 208.089844 260.027344 206.90625 260.324219 205.71875 C 260.625 204.527344 260.890625 203.328125 261.132812 202.125 C 261.371094 200.921875 261.578125 199.710938 261.757812 198.496094 C 261.941406 197.28125 262.089844 196.066406 262.210938 194.84375 C 262.328125 193.621094 262.417969 192.398438 262.480469 191.171875 C 262.539062 189.945312 262.570312 188.71875 262.570312 187.492188 C 262.566406 186.265625 262.535156 185.039062 262.472656 183.8125 C 262.410156 182.585938 262.316406 181.363281 262.195312 180.144531 C 262.070312 178.921875 261.917969 177.703125 261.738281 176.492188 C 261.554688 175.277344 261.34375 174.070312 261.101562 172.867188 C 260.859375 171.664062 260.589844 170.46875 260.289062 169.277344 C 259.988281 168.085938 259.660156 166.90625 259.304688 165.730469 C 258.945312 164.558594 258.558594 163.394531 258.144531 162.238281 C 257.730469 161.085938 257.285156 159.941406 256.816406 158.808594 C 256.34375 157.675781 255.847656 156.554688 255.320312 155.445312 C 254.792969 154.335938 254.242188 153.242188 253.664062 152.160156 C 253.082031 151.078125 252.476562 150.011719 251.84375 148.960938 C 251.214844 147.90625 250.554688 146.871094 249.875 145.851562 C 249.191406 144.832031 248.484375 143.828125 247.753906 142.84375 C 247.023438 141.859375 246.265625 140.890625 245.488281 139.945312 C 244.707031 138.996094 243.90625 138.066406 243.082031 137.160156 C 242.257812 136.25 241.410156 135.363281 240.542969 134.496094 C 239.675781 133.628906 238.789062 132.78125 237.878906 131.957031 C 236.96875 131.132812 236.039062 130.332031 235.089844 129.554688 C 234.144531 128.777344 233.175781 128.019531 232.191406 127.289062 C 231.203125 126.558594 230.203125 125.851562 229.179688 125.171875 C 228.160156 124.488281 227.125 123.832031 226.074219 123.203125 C 225.019531 122.570312 223.953125 121.964844 222.871094 121.386719 C 221.789062 120.808594 220.695312 120.253906 219.585938 119.730469 C 218.476562 119.207031 217.355469 118.707031 216.222656 118.238281 C 215.089844 117.765625 213.945312 117.324219 212.789062 116.910156 C 211.632812 116.496094 210.46875 116.109375 209.296875 115.753906 C 208.121094 115.398438 206.941406 115.066406 205.75 114.769531 C 204.558594 114.46875 203.363281 114.199219 202.160156 113.960938 C 200.957031 113.71875 199.75 113.507812 198.535156 113.324219 C 197.320312 113.144531 196.105469 112.992188 194.882812 112.871094 C 193.660156 112.75 192.4375 112.65625 191.214844 112.59375 C 189.988281 112.535156 188.761719 112.5 187.535156 112.5 Z M 208.246094 250.78125 C 204.996094 251.445312 203.792969 249.441406 203.792969 247.714844 C 203.792969 245.515625 203.890625 238.523438 203.890625 229.816406 C 203.890625 223.773438 201.835938 219.820312 199.488281 217.8125 C 213.945312 216.179688 229.160156 210.683594 229.160156 185.695312 C 229.183594 184.09375 229.058594 182.503906 228.777344 180.929688 C 228.5 179.351562 228.070312 177.816406 227.5 176.320312 C 226.925781 174.824219 226.214844 173.394531 225.367188 172.035156 C 224.519531 170.675781 223.550781 169.410156 222.460938 168.238281 C 223.128906 166.605469 225.421875 159.949219 221.832031 150.976562 C 221.832031 150.976562 216.378906 149.199219 203.941406 157.621094 C 198.621094 156.1875 193.203125 155.472656 187.695312 155.472656 C 182.183594 155.472656 176.769531 156.1875 171.445312 157.621094 C 159.011719 149.300781 153.546875 150.976562 153.546875 150.976562 C 150.007812 159.917969 152.261719 166.570312 152.925781 168.238281 C 151.84375 169.414062 150.882812 170.683594 150.042969 172.046875 C 149.203125 173.40625 148.496094 174.832031 147.929688 176.328125 C 147.359375 177.824219 146.9375 179.359375 146.660156 180.933594 C 146.382812 182.507812 146.253906 184.097656 146.28125 185.695312 C 146.28125 210.578125 161.402344 216.179688 175.847656 217.8125 C 173.984375 219.433594 172.257812 222.253906 171.6875 226.519531 C 167.953125 228.191406 158.621094 230.964844 152.789062 221.160156 C 151.542969 219.191406 147.902344 214.410156 142.785156 214.460938 C 137.332031 214.558594 140.582031 217.570312 142.835938 218.777344 C 145.605469 220.355469 148.765625 226.097656 149.535156 227.960938 C 150.820312 231.644531 155.03125 238.628906 171.351562 235.617188 C 171.351562 241.070312 171.445312 246.195312 171.445312 247.699219 C 171.445312 249.425781 170.257812 251.332031 166.992188 250.761719 C 165.789062 250.359375 164.59375 249.917969 163.414062 249.445312 C 162.234375 248.972656 161.070312 248.464844 159.921875 247.921875 C 158.773438 247.378906 157.640625 246.804688 156.523438 246.195312 C 155.40625 245.585938 154.308594 244.945312 153.230469 244.273438 C 152.152344 243.597656 151.09375 242.894531 150.058594 242.160156 C 149.019531 241.421875 148.007812 240.660156 147.015625 239.863281 C 146.023438 239.070312 145.054688 238.246094 144.109375 237.394531 C 143.167969 236.542969 142.25 235.664062 141.355469 234.757812 C 140.464844 233.851562 139.601562 232.921875 138.761719 231.964844 C 137.925781 231.007812 137.117188 230.027344 136.335938 229.023438 C 135.558594 228.019531 134.808594 226.992188 134.085938 225.945312 C 133.367188 224.898438 132.679688 223.828125 132.023438 222.738281 C 131.367188 221.652344 130.742188 220.542969 130.148438 219.417969 C 129.558594 218.292969 129 217.152344 128.476562 215.996094 C 127.949219 214.835938 127.460938 213.664062 127.003906 212.476562 C 126.546875 211.292969 126.128906 210.09375 125.742188 208.878906 C 125.355469 207.667969 125.007812 206.449219 124.691406 205.214844 C 124.378906 203.984375 124.101562 202.742188 123.859375 201.496094 C 123.621094 200.246094 123.414062 198.992188 123.25 197.734375 C 123.082031 196.472656 122.949219 195.207031 122.859375 193.941406 C 122.765625 192.671875 122.710938 191.402344 122.691406 190.132812 C 122.671875 188.859375 122.691406 187.589844 122.746094 186.320312 C 122.804688 185.050781 122.898438 183.78125 123.027344 182.519531 C 123.15625 181.253906 123.324219 179.992188 123.53125 178.738281 C 123.734375 177.484375 123.976562 176.238281 124.253906 174.996094 C 124.53125 173.753906 124.847656 172.523438 125.195312 171.300781 C 125.546875 170.078125 125.933594 168.871094 126.351562 167.667969 C 126.773438 166.46875 127.230469 165.285156 127.722656 164.113281 C 128.210938 162.9375 128.738281 161.78125 129.296875 160.640625 C 129.855469 159.496094 130.449219 158.375 131.070312 157.265625 C 131.695312 156.160156 132.355469 155.070312 133.042969 154.003906 C 133.730469 152.933594 134.453125 151.886719 135.203125 150.859375 C 135.953125 149.835938 136.730469 148.832031 137.542969 147.851562 C 138.351562 146.871094 139.1875 145.914062 140.054688 144.984375 C 140.917969 144.050781 141.8125 143.148438 142.730469 142.269531 C 143.648438 141.390625 144.589844 140.539062 145.558594 139.714844 C 146.527344 138.890625 147.519531 138.097656 148.535156 137.332031 C 149.550781 136.566406 150.585938 135.832031 151.644531 135.128906 C 152.703125 134.421875 153.78125 133.75 154.878906 133.109375 C 155.976562 132.46875 157.09375 131.859375 158.226562 131.285156 C 159.363281 130.710938 160.511719 130.167969 161.675781 129.660156 C 162.839844 129.152344 164.019531 128.679688 165.214844 128.242188 C 166.40625 127.800781 167.613281 127.398438 168.828125 127.03125 C 170.046875 126.664062 171.273438 126.332031 172.507812 126.035156 C 173.746094 125.738281 174.988281 125.480469 176.242188 125.257812 C 177.492188 125.035156 178.75 124.847656 180.011719 124.699219 C 181.273438 124.550781 182.542969 124.4375 183.808594 124.363281 C 185.078125 124.289062 186.347656 124.253906 187.621094 124.253906 C 188.890625 124.253906 190.164062 124.289062 191.429688 124.363281 C 192.699219 124.4375 193.964844 124.550781 195.230469 124.699219 C 196.492188 124.847656 197.75 125.035156 199 125.257812 C 200.25 125.480469 201.496094 125.738281 202.730469 126.035156 C 203.96875 126.332031 205.195312 126.664062 206.410156 127.03125 C 207.628906 127.398438 208.832031 127.800781 210.027344 128.242188 C 211.21875 128.679688 212.398438 129.152344 213.566406 129.660156 C 214.730469 130.167969 215.878906 130.710938 217.015625 131.285156 C 218.148438 131.859375 219.261719 132.46875 220.359375 133.109375 C 221.457031 133.75 222.535156 134.421875 223.59375 135.128906 C 224.652344 135.832031 225.691406 136.566406 226.707031 137.332031 C 227.722656 138.097656 228.710938 138.890625 229.679688 139.714844 C 230.648438 140.539062 231.59375 141.390625 232.511719 142.269531 C 233.429688 143.148438 234.324219 144.050781 235.1875 144.984375 C 236.054688 145.914062 236.890625 146.871094 237.699219 147.851562 C 238.507812 148.832031 239.289062 149.835938 240.039062 150.859375 C 240.789062 151.886719 241.507812 152.933594 242.199219 154.003906 C 242.886719 155.070312 243.542969 156.160156 244.167969 157.265625 C 244.792969 158.375 245.386719 159.496094 245.945312 160.640625 C 246.503906 161.78125 247.027344 162.9375 247.519531 164.113281 C 248.011719 165.285156 248.46875 166.46875 248.886719 167.667969 C 249.308594 168.871094 249.695312 170.078125 250.046875 171.300781 C 250.394531 172.523438 250.710938 173.753906 250.988281 174.996094 C 251.265625 176.238281 251.507812 177.484375 251.710938 178.738281 C 251.914062 179.992188 252.082031 181.253906 252.214844 182.519531 C 252.34375 183.78125 252.4375 185.050781 252.492188 186.320312 C 252.550781 187.589844 252.570312 188.859375 252.550781 190.132812 C 252.53125 191.402344 252.476562 192.671875 252.382812 193.941406 C 252.289062 195.207031 252.160156 196.472656 251.992188 197.734375 C 251.824219 198.992188 251.621094 200.246094 251.378906 201.496094 C 251.140625 202.742188 250.863281 203.984375 250.546875 205.214844 C 250.234375 206.449219 249.886719 207.667969 249.5 208.878906 C 249.113281 210.09375 248.695312 211.292969 248.238281 212.476562 C 247.78125 213.664062 247.292969 214.835938 246.765625 215.996094 C 246.242188 217.152344 245.683594 218.292969 245.089844 219.417969 C 244.5 220.542969 243.875 221.652344 243.21875 222.738281 C 242.5625 223.828125 241.875 224.898438 241.152344 225.945312 C 240.433594 226.992188 239.683594 228.019531 238.90625 229.023438 C 238.125 230.027344 237.316406 231.007812 236.480469 231.964844 C 235.640625 232.921875 234.777344 233.851562 233.882812 234.757812 C 232.992188 235.664062 232.074219 236.542969 231.128906 237.394531 C 230.1875 238.246094 229.21875 239.070312 228.226562 239.863281 C 227.234375 240.660156 226.21875 241.421875 225.183594 242.160156 C 224.144531 242.894531 223.089844 243.597656 222.011719 244.273438 C 220.933594 244.945312 219.835938 245.585938 218.71875 246.195312 C 217.601562 246.804688 216.46875 247.378906 215.320312 247.921875 C 214.171875 248.464844 213.003906 248.972656 211.824219 249.445312 C 210.644531 249.917969 209.453125 250.359375 208.246094 250.761719 Z M 208.246094 250.78125 " fill-opacity="1" fill-rule="evenodd"/></g></svg>