<svg xmlns="http://www.w3.org/2000/svg" xmlns:xlink="http://www.w3.org/1999/xlink" width="500" zoomAndPan="magnify" viewBox="0 0 375 374.999991" height="500" preserveAspectRatio="xMidYMid meet" version="1.0"><defs><clipPath id="9b1f95d3f9"><path d="M 37.5 37.5 L 337.5 37.5 L 337.5 337.5 L 37.5 337.5 Z M 37.5 37.5 " clip-rule="nonzero"/></clipPath></defs><g clip-path="url(#9b1f95d3f9)"><path fill="#3e77bf" d="M 187.570312 37.5 C 185.113281 37.5 182.660156 37.5625 180.207031 37.683594 C 177.757812 37.804688 175.308594 37.984375 172.867188 38.226562 C 170.421875 38.46875 167.988281 38.769531 165.558594 39.132812 C 163.128906 39.492188 160.710938 39.914062 158.304688 40.390625 C 155.894531 40.871094 153.5 41.410156 151.121094 42.007812 C 148.738281 42.605469 146.375 43.261719 144.023438 43.972656 C 141.675781 44.6875 139.34375 45.457031 137.035156 46.285156 C 134.722656 47.113281 132.433594 48 130.164062 48.9375 C 127.898438 49.878906 125.652344 50.875 123.433594 51.925781 C 121.214844 52.976562 119.023438 54.078125 116.859375 55.238281 C 114.695312 56.394531 112.558594 57.605469 110.453125 58.867188 C 108.347656 60.132812 106.273438 61.445312 104.234375 62.808594 C 102.195312 64.175781 100.1875 65.589844 98.214844 67.050781 C 96.246094 68.515625 94.308594 70.027344 92.414062 71.582031 C 90.515625 73.140625 88.65625 74.746094 86.839844 76.394531 C 85.019531 78.042969 83.242188 79.738281 81.507812 81.472656 C 79.773438 83.210938 78.082031 84.988281 76.433594 86.808594 C 74.785156 88.628906 73.183594 90.488281 71.625 92.386719 C 70.066406 94.28125 68.558594 96.21875 67.097656 98.191406 C 65.636719 100.164062 64.222656 102.171875 62.859375 104.210938 C 61.496094 106.253906 60.183594 108.328125 58.921875 110.433594 C 57.660156 112.539062 56.453125 114.675781 55.292969 116.84375 C 54.136719 119.007812 53.035156 121.199219 51.988281 123.417969 C 50.9375 125.640625 49.945312 127.882812 49.003906 130.152344 C 48.066406 132.421875 47.183594 134.710938 46.355469 137.023438 C 45.53125 139.335938 44.761719 141.664062 44.050781 144.015625 C 43.335938 146.363281 42.683594 148.730469 42.089844 151.113281 C 41.492188 153.492188 40.957031 155.886719 40.476562 158.296875 C 40 160.703125 39.578125 163.121094 39.21875 165.550781 C 38.859375 167.980469 38.5625 170.414062 38.320312 172.859375 C 38.082031 175.300781 37.902344 177.75 37.78125 180.203125 C 37.664062 182.65625 37.601562 185.109375 37.605469 187.5625 C 37.605469 190.019531 37.664062 192.472656 37.785156 194.925781 C 37.90625 197.375 38.089844 199.824219 38.332031 202.265625 C 38.570312 204.710938 38.871094 207.144531 39.234375 209.574219 C 39.59375 212.003906 40.015625 214.421875 40.496094 216.828125 C 40.976562 219.238281 41.511719 221.632812 42.109375 224.011719 C 42.707031 226.394531 43.363281 228.757812 44.078125 231.109375 C 44.789062 233.457031 45.558594 235.789062 46.386719 238.097656 C 47.214844 240.410156 48.101562 242.699219 49.039062 244.96875 C 49.980469 247.234375 50.976562 249.480469 52.027344 251.699219 C 53.078125 253.917969 54.179688 256.109375 55.339844 258.273438 C 56.496094 260.4375 57.707031 262.574219 58.96875 264.679688 C 60.230469 266.785156 61.546875 268.859375 62.910156 270.898438 C 64.273438 272.941406 65.6875 274.945312 67.152344 276.917969 C 68.613281 278.890625 70.125 280.824219 71.683594 282.722656 C 73.242188 284.617188 74.84375 286.476562 76.496094 288.292969 C 78.144531 290.113281 79.835938 291.890625 81.574219 293.625 C 83.308594 295.363281 85.085938 297.054688 86.90625 298.703125 C 88.726562 300.351562 90.585938 301.953125 92.484375 303.507812 C 94.382812 305.066406 96.316406 306.574219 98.289062 308.039062 C 100.261719 309.5 102.269531 310.914062 104.3125 312.277344 C 106.351562 313.640625 108.425781 314.953125 110.53125 316.214844 C 112.640625 317.476562 114.773438 318.683594 116.941406 319.839844 C 119.105469 320.996094 121.296875 322.101562 123.519531 323.148438 C 125.738281 324.199219 127.980469 325.191406 130.25 326.132812 C 132.519531 327.070312 134.808594 327.953125 137.121094 328.777344 C 139.433594 329.605469 141.761719 330.375 144.113281 331.085938 C 146.460938 331.800781 148.828125 332.453125 151.210938 333.046875 C 153.589844 333.644531 155.984375 334.183594 158.394531 334.660156 C 160.800781 335.136719 163.21875 335.558594 165.648438 335.917969 C 168.078125 336.277344 170.515625 336.578125 172.957031 336.816406 C 175.398438 337.054688 177.847656 337.234375 180.300781 337.355469 C 182.753906 337.476562 185.207031 337.535156 187.660156 337.535156 C 190.117188 337.535156 192.570312 337.472656 195.023438 337.351562 C 197.472656 337.230469 199.921875 337.050781 202.363281 336.808594 C 204.808594 336.566406 207.242188 336.265625 209.671875 335.90625 C 212.101562 335.542969 214.519531 335.125 216.925781 334.644531 C 219.335938 334.164062 221.730469 333.625 224.109375 333.027344 C 226.492188 332.433594 228.855469 331.777344 231.207031 331.0625 C 233.554688 330.351562 235.886719 329.578125 238.195312 328.75 C 240.507812 327.925781 242.796875 327.039062 245.066406 326.101562 C 247.332031 325.160156 249.578125 324.164062 251.796875 323.113281 C 254.015625 322.0625 256.207031 320.960938 258.371094 319.800781 C 260.539062 318.644531 262.671875 317.433594 264.777344 316.171875 C 266.882812 314.910156 268.957031 313.59375 270.996094 312.230469 C 273.039062 310.867188 275.042969 309.453125 277.015625 307.988281 C 278.988281 306.527344 280.921875 305.015625 282.820312 303.457031 C 284.71875 301.898438 286.574219 300.296875 288.394531 298.648438 C 290.210938 297 291.988281 295.304688 293.726562 293.570312 C 295.460938 291.832031 297.152344 290.054688 298.800781 288.234375 C 300.449219 286.414062 302.050781 284.558594 303.609375 282.660156 C 305.167969 280.761719 306.675781 278.824219 308.136719 276.851562 C 309.601562 274.878906 311.011719 272.875 312.375 270.832031 C 313.738281 268.789062 315.050781 266.714844 316.3125 264.609375 C 317.574219 262.503906 318.785156 260.367188 319.941406 258.203125 C 321.097656 256.039062 322.199219 253.84375 323.25 251.625 C 324.300781 249.40625 325.292969 247.160156 326.234375 244.894531 C 327.171875 242.625 328.054688 240.335938 328.878906 238.023438 C 329.707031 235.710938 330.476562 233.378906 331.1875 231.03125 C 331.902344 228.679688 332.554688 226.316406 333.152344 223.933594 C 333.746094 221.550781 334.285156 219.15625 334.761719 216.75 C 335.242188 214.339844 335.660156 211.921875 336.019531 209.496094 C 336.378906 207.066406 336.679688 204.628906 336.917969 202.1875 C 337.160156 199.742188 337.339844 197.296875 337.460938 194.84375 C 337.578125 192.390625 337.636719 189.9375 337.636719 187.484375 C 337.632812 185.027344 337.566406 182.574219 337.441406 180.125 C 337.316406 177.675781 337.132812 175.226562 336.886719 172.785156 C 336.640625 170.34375 336.335938 167.910156 335.972656 165.484375 C 335.609375 163.054688 335.183594 160.640625 334.703125 158.234375 C 334.21875 155.828125 333.679688 153.433594 333.078125 151.054688 C 332.480469 148.675781 331.820312 146.3125 331.105469 143.964844 C 330.390625 141.617188 329.617188 139.289062 328.789062 136.980469 C 327.957031 134.667969 327.070312 132.382812 326.128906 130.113281 C 325.1875 127.847656 324.191406 125.605469 323.140625 123.390625 C 322.089844 121.171875 320.984375 118.980469 319.824219 116.820312 C 318.664062 114.65625 317.453125 112.523438 316.191406 110.417969 C 314.925781 108.3125 313.613281 106.242188 312.25 104.203125 C 310.882812 102.164062 309.46875 100.160156 308.007812 98.1875 C 306.542969 96.21875 305.03125 94.285156 303.476562 92.390625 C 301.917969 90.492188 300.3125 88.636719 298.664062 86.816406 C 297.015625 85 295.324219 83.222656 293.585938 81.488281 C 291.851562 79.753906 290.074219 78.0625 288.257812 76.414062 C 286.4375 74.769531 284.578125 73.164062 282.683594 71.609375 C 280.785156 70.050781 278.851562 68.542969 276.878906 67.082031 C 274.910156 65.617188 272.902344 64.207031 270.863281 62.84375 C 268.824219 61.476562 266.75 60.164062 264.644531 58.902344 C 262.542969 57.640625 260.40625 56.429688 258.242188 55.273438 C 256.078125 54.117188 253.886719 53.011719 251.671875 51.960938 C 249.453125 50.910156 247.210938 49.914062 244.941406 48.976562 C 242.675781 48.035156 240.386719 47.148438 238.078125 46.320312 C 235.769531 45.492188 233.4375 44.722656 231.089844 44.007812 C 228.742188 43.292969 226.378906 42.636719 224 42.039062 C 221.621094 41.441406 219.226562 40.898438 216.820312 40.417969 C 214.414062 39.9375 211.996094 39.515625 209.570312 39.152344 C 207.144531 38.789062 204.707031 38.484375 202.265625 38.242188 C 199.824219 38 197.378906 37.816406 194.925781 37.691406 C 192.476562 37.566406 190.023438 37.503906 187.570312 37.5 Z M 228.996094 314.058594 C 222.488281 315.386719 220.089844 311.382812 220.089844 307.929688 C 220.089844 303.53125 220.277344 289.546875 220.277344 272.132812 C 220.277344 260.050781 216.171875 252.144531 211.476562 248.121094 C 240.386719 244.859375 270.820312 233.863281 270.820312 183.890625 C 270.871094 180.6875 270.613281 177.511719 270.054688 174.355469 C 269.496094 171.203125 268.644531 168.128906 267.496094 165.136719 C 266.347656 162.148438 264.929688 159.292969 263.234375 156.574219 C 261.539062 153.855469 259.605469 151.320312 257.425781 148.972656 C 258.753906 145.710938 263.347656 132.402344 256.164062 114.449219 C 256.164062 114.449219 245.257812 110.894531 220.382812 127.742188 C 215.085938 126.316406 209.714844 125.242188 204.277344 124.523438 C 198.835938 123.804688 193.375 123.445312 187.886719 123.445312 C 182.402344 123.445312 176.9375 123.804688 171.5 124.523438 C 166.058594 125.242188 160.691406 126.316406 155.394531 127.742188 C 130.519531 111.101562 119.59375 114.449219 119.59375 114.449219 C 112.515625 132.332031 117.023438 145.640625 118.351562 148.972656 C 116.1875 151.328125 114.265625 153.867188 112.585938 156.589844 C 110.902344 159.3125 109.492188 162.167969 108.355469 165.15625 C 107.21875 168.148438 106.371094 171.21875 105.816406 174.367188 C 105.261719 177.519531 105.011719 180.695312 105.058594 183.890625 C 105.058594 233.65625 135.300781 244.859375 164.195312 248.121094 C 160.46875 251.367188 157.015625 257.011719 155.878906 265.539062 C 148.402344 268.886719 129.742188 274.425781 118.074219 254.820312 C 115.589844 250.882812 108.304688 241.320312 98.070312 241.425781 C 87.160156 241.613281 93.667969 247.636719 98.171875 250.054688 C 103.714844 253.214844 110.03125 264.691406 111.566406 268.421875 C 114.140625 275.792969 122.5625 289.753906 155.203125 283.730469 C 155.203125 294.640625 155.394531 304.894531 155.394531 307.898438 C 155.394531 311.347656 153.011719 315.164062 146.488281 314.023438 C 144.078125 313.21875 141.691406 312.339844 139.332031 311.390625 C 136.972656 310.445312 134.644531 309.429688 132.34375 308.34375 C 130.042969 307.257812 127.777344 306.109375 125.546875 304.890625 C 123.3125 303.671875 121.121094 302.390625 118.960938 301.042969 C 116.804688 299.699219 114.691406 298.289062 112.617188 296.816406 C 110.542969 295.347656 108.511719 293.816406 106.527344 292.226562 C 104.542969 290.636719 102.609375 288.988281 100.722656 287.285156 C 98.835938 285.582031 97 283.824219 95.214844 282.015625 C 93.429688 280.203125 91.699219 278.339844 90.027344 276.425781 C 88.351562 274.515625 86.734375 272.554688 85.171875 270.546875 C 83.613281 268.539062 82.113281 266.484375 80.675781 264.390625 C 79.234375 262.292969 77.859375 260.15625 76.546875 257.980469 C 75.234375 255.804688 73.984375 253.589844 72.800781 251.339844 C 71.617188 249.089844 70.5 246.804688 69.449219 244.488281 C 68.402344 242.175781 67.417969 239.828125 66.507812 237.457031 C 65.597656 235.082031 64.753906 232.683594 63.984375 230.261719 C 63.210938 227.839844 62.511719 225.394531 61.886719 222.929688 C 61.257812 220.46875 60.703125 217.988281 60.222656 215.492188 C 59.738281 212.992188 59.332031 210.484375 58.996094 207.964844 C 58.664062 205.445312 58.402344 202.917969 58.214844 200.378906 C 58.03125 197.84375 57.917969 195.304688 57.882812 192.761719 C 57.84375 190.222656 57.882812 187.679688 57.996094 185.140625 C 58.105469 182.601562 58.292969 180.066406 58.554688 177.535156 C 58.816406 175.007812 59.152344 172.488281 59.5625 169.976562 C 59.96875 167.46875 60.453125 164.972656 61.007812 162.492188 C 61.5625 160.011719 62.191406 157.546875 62.890625 155.105469 C 63.59375 152.660156 64.363281 150.238281 65.207031 147.839844 C 66.050781 145.441406 66.960938 143.070312 67.941406 140.722656 C 68.925781 138.378906 69.976562 136.0625 71.09375 133.78125 C 72.210938 131.496094 73.394531 129.246094 74.644531 127.03125 C 75.894531 124.820312 77.207031 122.644531 78.585938 120.507812 C 79.964844 118.371094 81.402344 116.273438 82.902344 114.222656 C 84.402344 112.167969 85.964844 110.164062 87.582031 108.203125 C 89.199219 106.242188 90.875 104.328125 92.605469 102.46875 C 94.335938 100.605469 96.121094 98.792969 97.957031 97.035156 C 99.796875 95.277344 101.683594 93.578125 103.621094 91.929688 C 105.558594 90.28125 107.542969 88.695312 109.570312 87.164062 C 111.601562 85.632812 113.675781 84.164062 115.792969 82.753906 C 117.910156 81.347656 120.066406 80 122.261719 78.71875 C 124.457031 77.4375 126.6875 76.222656 128.957031 75.070312 C 131.222656 73.917969 133.523438 72.835938 135.851562 71.820312 C 138.183594 70.804688 140.542969 69.859375 142.929688 68.980469 C 145.316406 68.101562 147.726562 67.296875 150.160156 66.5625 C 152.59375 65.824219 155.046875 65.160156 157.519531 64.570312 C 159.992188 63.976562 162.480469 63.460938 164.984375 63.015625 C 167.484375 62.570312 170 62.195312 172.523438 61.898438 C 175.050781 61.601562 177.582031 61.378906 180.121094 61.226562 C 182.660156 61.078125 185.199219 61.003906 187.742188 61.003906 C 190.285156 61.003906 192.824219 61.078125 195.363281 61.226562 C 197.902344 61.378906 200.433594 61.601562 202.957031 61.898438 C 205.484375 62.195312 207.996094 62.570312 210.5 63.015625 C 213.003906 63.460938 215.492188 63.976562 217.964844 64.570312 C 220.4375 65.160156 222.890625 65.824219 225.324219 66.5625 C 227.757812 67.296875 230.167969 68.101562 232.554688 68.980469 C 234.941406 69.859375 237.300781 70.804688 239.628906 71.820312 C 241.960938 72.835938 244.261719 73.917969 246.527344 75.070312 C 248.792969 76.222656 251.027344 77.4375 253.222656 78.71875 C 255.417969 80 257.574219 81.347656 259.691406 82.753906 C 261.808594 84.164062 263.882812 85.632812 265.910156 87.164062 C 267.941406 88.695312 269.925781 90.28125 271.863281 91.929688 C 273.800781 93.578125 275.6875 95.277344 277.523438 97.035156 C 279.363281 98.792969 281.144531 100.605469 282.875 102.46875 C 284.605469 104.328125 286.28125 106.242188 287.902344 108.203125 C 289.519531 110.164062 291.078125 112.167969 292.578125 114.222656 C 294.082031 116.273438 295.519531 118.371094 296.898438 120.507812 C 298.273438 122.644531 299.589844 124.820312 300.839844 127.03125 C 302.089844 129.246094 303.273438 131.496094 304.390625 133.78125 C 305.507812 136.0625 306.558594 138.378906 307.539062 140.722656 C 308.523438 143.070312 309.433594 145.441406 310.277344 147.839844 C 311.117188 150.238281 311.890625 152.660156 312.589844 155.105469 C 313.292969 157.546875 313.917969 160.011719 314.476562 162.492188 C 315.03125 164.972656 315.511719 167.46875 315.921875 169.976562 C 316.332031 172.488281 316.667969 175.007812 316.929688 177.535156 C 317.1875 180.066406 317.375 182.601562 317.488281 185.140625 C 317.601562 187.679688 317.636719 190.222656 317.601562 192.761719 C 317.5625 195.304688 317.453125 197.84375 317.265625 200.378906 C 317.082031 202.917969 316.820312 205.445312 316.484375 207.964844 C 316.152344 210.484375 315.742188 212.992188 315.261719 215.492188 C 314.78125 217.988281 314.226562 220.46875 313.597656 222.929688 C 312.96875 225.394531 312.269531 227.839844 311.5 230.261719 C 310.726562 232.683594 309.886719 235.082031 308.976562 237.457031 C 308.0625 239.828125 307.082031 242.175781 306.03125 244.488281 C 304.984375 246.804688 303.867188 249.089844 302.683594 251.339844 C 301.5 253.589844 300.25 255.804688 298.9375 257.980469 C 297.625 260.15625 296.246094 262.292969 294.808594 264.390625 C 293.367188 266.484375 291.867188 268.539062 290.308594 270.546875 C 288.75 272.554688 287.132812 274.515625 285.457031 276.425781 C 283.78125 278.339844 282.054688 280.203125 280.269531 282.015625 C 278.484375 283.824219 276.648438 285.582031 274.761719 287.285156 C 272.875 288.988281 270.9375 290.636719 268.953125 292.226562 C 266.96875 293.816406 264.941406 295.347656 262.867188 296.816406 C 260.792969 298.289062 258.675781 299.699219 256.519531 301.042969 C 254.363281 302.390625 252.167969 303.671875 249.9375 304.890625 C 247.707031 306.109375 245.441406 307.257812 243.140625 308.34375 C 240.839844 309.429688 238.511719 310.445312 236.152344 311.390625 C 233.792969 312.339844 231.40625 313.21875 228.996094 314.023438 Z M 228.996094 314.058594 " fill-opacity="1" fill-rule="evenodd"/></g></svg>