<svg xmlns="http://www.w3.org/2000/svg" xmlns:xlink="http://www.w3.org/1999/xlink" width="500" zoomAndPan="magnify" viewBox="0 0 375 374.999991" height="500" preserveAspectRatio="xMidYMid meet" version="1.0"><defs><clipPath id="d2439ba776"><path d="M 107 37.5 L 261 37.5 L 261 337.5 L 107 337.5 Z M 107 37.5 " clip-rule="nonzero"/></clipPath></defs><path fill="#4e7896" d="M 161.195312 196.59375 C 161.195312 196.59375 153.277344 201.40625 166.703125 202.78125 C 182.886719 204.84375 191.492188 204.5 209.394531 201.0625 C 209.394531 201.0625 214.214844 204.15625 220.757812 206.558594 C 180.476562 223.742188 129.519531 205.527344 161.195312 196.59375 Z M 156.03125 174.261719 C 156.03125 174.261719 147.425781 180.789062 160.851562 182.164062 C 178.410156 183.882812 192.183594 184.226562 215.9375 179.414062 C 215.9375 179.414062 219.035156 182.851562 224.199219 184.570312 C 175.65625 199 121.253906 185.945312 156.03125 174.261719 Z M 251.058594 213.429688 C 251.058594 213.429688 256.910156 218.238281 244.515625 222.019531 C 221.445312 228.890625 147.773438 230.953125 127.109375 222.019531 C 119.882812 218.929688 133.652344 214.460938 138.128906 213.773438 C 142.605469 212.742188 145.015625 212.742188 145.015625 212.742188 C 137.097656 207.246094 92.339844 224.082031 122.289062 228.890625 C 204.574219 242.292969 272.398438 223.050781 251.054688 213.429688 Z M 164.984375 150.890625 C 164.984375 150.890625 127.457031 159.824219 151.558594 162.917969 C 161.886719 164.292969 182.199219 163.949219 201.136719 162.574219 C 216.628906 161.199219 232.121094 158.449219 232.121094 158.449219 C 232.121094 158.449219 226.613281 160.855469 222.824219 163.261719 C 184.609375 173.226562 111.277344 168.757812 132.277344 158.449219 C 150.179688 149.859375 164.984375 150.890625 164.984375 150.890625 Z M 232.121094 188.34375 C 270.679688 168.414062 252.777344 149.175781 240.382812 151.578125 C 237.285156 152.265625 235.90625 152.953125 235.90625 152.953125 C 235.90625 152.953125 236.941406 150.890625 239.351562 150.203125 C 263.792969 141.613281 283.074219 175.972656 231.433594 189.375 C 231.433594 189.375 231.777344 189.03125 232.121094 188.34375 Z M 168.769531 242.636719 C 205.953125 245.042969 262.753906 241.261719 264.140625 223.738281 C 264.140625 223.738281 261.386719 230.609375 233.5 235.761719 C 201.824219 241.605469 162.578125 240.917969 139.515625 237.136719 C 139.515625 237.136719 144.335938 241.261719 168.78125 242.636719 Z M 168.769531 242.636719 " fill-opacity="1" fill-rule="nonzero"/><g clip-path="url(#d2439ba776)"><path fill="#f58219" d="M 208.707031 37.5 C 208.707031 37.5 230.050781 59.148438 188.394531 91.789062 C 155 118.25 180.820312 133.367188 188.394531 150.546875 C 168.769531 133.023438 154.652344 117.5625 164.292969 103.128906 C 178.410156 81.824219 217.316406 71.523438 208.707031 37.5 Z M 197.695312 136.117188 C 207.679688 147.457031 194.941406 157.765625 194.941406 157.765625 C 194.941406 157.765625 220.417969 144.710938 208.710938 128.558594 C 198.039062 113.097656 189.777344 105.539062 234.535156 79.773438 C 234.535156 79.773438 163.957031 97.296875 197.695312 136.125 Z M 172.214844 320.632812 L 172.214844 286.960938 C 172.214844 278.367188 167.394531 272.527344 155.34375 272.527344 C 148.457031 272.527344 142.605469 274.246094 137.441406 276.300781 L 139.164062 282.484375 C 142.941406 281.113281 147.769531 279.738281 152.933594 279.738281 C 159.476562 279.738281 162.574219 282.484375 162.574219 287.984375 L 162.574219 292.449219 L 159.132812 292.449219 C 142.605469 292.449219 135.03125 298.636719 135.03125 308.601562 C 135.03125 316.847656 140.195312 321.65625 149.492188 321.65625 C 155.34375 321.65625 159.820312 318.90625 163.953125 315.472656 L 164.640625 320.625 L 172.214844 320.625 Z M 162.574219 309.636719 C 159.128906 312.730469 155.34375 314.449219 151.898438 314.449219 C 147.425781 314.449219 144.671875 311.699219 144.671875 306.890625 C 144.671875 302.078125 147.425781 298.640625 158.441406 298.640625 L 162.574219 298.640625 Z M 204.578125 320.632812 L 192.527344 320.632812 L 178.066406 273.558594 L 188.398438 273.558594 L 197.347656 302.421875 L 199.414062 311.011719 C 203.890625 298.640625 207.332031 285.929688 208.710938 273.558594 L 219.039062 273.558594 C 216.285156 289.019531 211.464844 305.859375 204.578125 320.632812 Z M 260.351562 320.632812 L 260.351562 286.960938 C 260.351562 278.367188 255.53125 272.527344 243.480469 272.527344 C 236.59375 272.527344 230.742188 274.246094 225.578125 276.300781 L 226.957031 282.484375 C 231.085938 281.113281 235.90625 279.738281 241.070312 279.738281 C 247.613281 279.738281 250.710938 282.484375 250.710938 287.984375 L 250.710938 292.449219 L 247.269531 292.449219 C 230.742188 292.449219 223.167969 298.636719 223.167969 308.601562 C 223.167969 316.847656 227.988281 321.65625 237.285156 321.65625 C 243.480469 321.65625 247.957031 318.90625 252.089844 315.472656 L 252.777344 320.625 L 260.351562 320.625 Z M 250.710938 309.636719 C 247.269531 312.730469 243.480469 314.449219 240.039062 314.449219 C 235.5625 314.449219 232.808594 311.699219 232.808594 306.890625 C 232.808594 302.078125 235.5625 298.640625 246.578125 298.640625 L 250.710938 298.640625 Z M 124.359375 328.535156 C 121.605469 332.660156 117.472656 335.753906 112.308594 337.472656 L 107.832031 331.976562 C 111.273438 329.914062 114.71875 326.824219 116.09375 324.074219 C 117.472656 321.667969 117.816406 318.230469 117.816406 310.328125 L 117.816406 256.726562 L 128.144531 256.726562 L 128.144531 309.640625 C 128.144531 320.292969 127.113281 324.417969 124.363281 328.542969 Z M 124.359375 328.535156 " fill-opacity="1" fill-rule="nonzero"/></g></svg>