<svg xmlns="http://www.w3.org/2000/svg" xmlns:xlink="http://www.w3.org/1999/xlink" width="500" zoomAndPan="magnify" viewBox="0 0 375 374.999991" height="500" preserveAspectRatio="xMidYMid meet" version="1.0"><defs><clipPath id="e8f1237da2"><path d="M 112.5 112.5 L 262.5 112.5 L 262.5 262.5 L 112.5 262.5 Z M 112.5 112.5 " clip-rule="nonzero"/></clipPath></defs><g clip-path="url(#e8f1237da2)"><path fill="#d9d9d9" d="M 231.792969 112.5 L 143.207031 112.5 C 126.277344 112.5 112.5 126.277344 112.5 143.207031 L 112.5 231.792969 C 112.5 248.722656 126.277344 262.5 143.207031 262.5 L 231.792969 262.5 C 248.722656 262.5 262.5 248.722656 262.5 231.792969 L 262.5 143.207031 C 262.5 126.277344 248.722656 112.5 231.792969 112.5 Z M 253.675781 231.792969 C 253.675781 243.859375 243.859375 253.675781 231.792969 253.675781 L 143.207031 253.675781 C 131.140625 253.675781 121.324219 243.859375 121.324219 231.792969 L 121.324219 143.207031 C 121.324219 131.140625 131.140625 121.324219 143.207031 121.324219 L 231.792969 121.324219 C 243.859375 121.324219 253.675781 131.140625 253.675781 143.207031 Z M 253.675781 231.792969 " fill-opacity="1" fill-rule="nonzero"/></g><path fill="#d9d9d9" d="M 158.089844 172.09375 L 140.441406 172.09375 C 138.003906 172.09375 136.03125 174.070312 136.03125 176.507812 L 136.03125 234.007812 C 136.03125 236.441406 138.003906 238.417969 140.441406 238.417969 L 158.089844 238.417969 C 160.523438 238.417969 162.5 236.441406 162.5 234.007812 L 162.5 176.507812 C 162.5 174.070312 160.523438 172.09375 158.089844 172.09375 Z M 158.089844 172.09375 " fill-opacity="1" fill-rule="nonzero"/><path fill="#d9d9d9" d="M 205.148438 179.152344 C 202.648438 179.152344 200.191406 179.421875 197.792969 179.957031 L 197.792969 176.507812 C 197.792969 174.070312 195.820312 172.09375 193.382812 172.09375 L 175.734375 172.09375 C 173.296875 172.09375 171.324219 174.070312 171.324219 176.507812 L 171.324219 234.007812 C 171.324219 236.441406 173.296875 238.417969 175.734375 238.417969 L 193.382812 238.417969 C 195.820312 238.417969 197.792969 236.441406 197.792969 234.007812 L 197.792969 212.976562 C 197.792969 208.921875 201.09375 205.625 205.148438 205.625 C 209.203125 205.625 212.5 208.921875 212.5 212.976562 L 212.5 234.007812 C 212.5 236.441406 214.476562 238.417969 216.910156 238.417969 L 234.558594 238.417969 C 236.996094 238.417969 238.96875 236.441406 238.96875 234.007812 L 238.96875 212.976562 C 238.96875 194.324219 223.796875 179.152344 205.148438 179.152344 Z M 205.148438 179.152344 " fill-opacity="1" fill-rule="nonzero"/><path fill="#d9d9d9" d="M 149.265625 136.582031 C 141.964844 136.582031 136.03125 142.519531 136.03125 149.816406 C 136.03125 157.117188 141.964844 163.054688 149.265625 163.054688 C 156.5625 163.054688 162.5 157.117188 162.5 149.816406 C 162.5 142.519531 156.5625 136.582031 149.265625 136.582031 Z M 149.265625 136.582031 " fill-opacity="1" fill-rule="nonzero"/></svg>